<svg xmlns="http://www.w3.org/2000/svg" width="624.318" height="159.365" viewBox="0 0 624.318 159.365" fill="none">
  <path d="M 327.588 28.743 C 324.689 31.644 323.184 35.651 323.45 39.743 C 323.472 40.06 323.472 40.381 323.494 40.706 C 323.937 47.685 329.714 53.123 336.708 53.123 C 364.596 53.123 429.669 53.121 429.669 53.121 C 433.122 53.121 436.442 51.788 438.943 49.398 L 486.884 3.648 C 489.319 1.306 492.595 0 495.981 0 L 571.236 0 C 574.733 0 578.097 1.388 580.554 3.858 C 580.554 3.858 609.748 33.041 623.183 46.483 C 624.29 47.596 624.622 49.267 624.024 50.719 C 623.427 52.173 622.01 53.121 620.439 53.121 C 583.409 53.121 449.412 53.121 449.412 53.121 C 445.871 53.121 442.506 54.52 440.005 57.012 C 440.005 57.012 406.318 90.706 394.676 102.344 C 392.175 104.838 388.788 106.242 385.269 106.242 C 371.679 106.242 337.659 106.242 337.659 106.242 C 337.659 106.242 336.132 109.309 334.539 112.497 C 332.325 116.921 332.325 122.127 334.539 126.551 C 335.424 128.342 336.309 130.095 336.907 131.288 C 337.349 132.193 337.172 133.287 336.464 134.004 C 331.285 139.181 311.099 159.365 311.099 159.365 C 311.099 159.365 290.869 139.128 285.712 133.982 C 285.004 133.278 284.849 132.204 285.291 131.315 C 285.889 130.122 286.774 128.355 287.659 126.551 C 289.873 122.127 289.873 116.921 287.659 112.497 C 286.066 109.309 284.539 106.242 284.539 106.242 L 236.907 106.242 C 233.388 106.242 230.023 104.847 227.544 102.366 C 215.924 90.75 182.193 57.012 182.193 57.012 C 179.692 54.52 176.327 53.121 172.786 53.121 C 172.786 53.121 34.384 53.121 2.666 53.121 C 1.582 53.121 0.608 52.472 0.21 51.476 C -0.211 50.482 0.011 49.336 0.785 48.575 C 12.981 36.381 45.495 3.858 45.495 3.858 C 47.974 1.388 51.316 0 54.813 0 L 126.217 0 C 129.603 0 132.879 1.306 135.314 3.648 L 183.255 49.398 C 185.756 51.788 189.076 53.121 192.529 53.121 C 192.529 53.121 257.248 53.134 285.07 53.141 C 292.086 53.141 297.885 47.696 298.35 40.697 C 298.859 32.607 299.457 23.557 299.457 23.557 C 299.457 17.448 304.415 12.49 310.523 12.49 C 309.262 12.49 311.874 12.49 310.523 12.49 C 318.093 12.49 329.581 14.192 333.941 9.83 C 335.668 8.121 337.216 6.474 338.522 5.009 C 339.828 3.544 341.643 2.663 343.613 2.565 C 345.561 2.468 347.465 3.161 348.903 4.489 C 348.903 4.482 348.903 4.482 348.903 4.482 C 349.722 5.305 349.722 6.629 348.903 7.446 C 348.903 7.446 335.025 21.321 327.588 28.743 Z" fill="currentColor" fill-rule="evenodd"></path>
</svg>