<svg xmlns="http://www.w3.org/2000/svg" width="881" height="225" viewBox="0 0 881 225" fill="none">
  <path d="M 462.273 40.581 C 458.182 44.677 456.058 50.334 456.433 56.112 C 456.464 56.559 456.464 57.012 456.496 57.471 C 457.12 67.324 465.272 75.002 475.142 75.002 C 514.496 75.002 606.323 74.999 606.323 74.999 C 611.196 74.999 615.881 73.118 619.41 69.743 L 687.062 5.15 C 690.498 1.844 695.121 0 699.899 0 L 806.094 0 C 811.029 0 815.776 1.959 819.243 5.447 C 819.243 5.447 860.44 46.649 879.399 65.627 C 880.961 67.199 881.429 69.558 880.586 71.608 C 879.742 73.661 877.744 74.999 875.526 74.999 C 823.272 74.999 634.184 74.999 634.184 74.999 C 629.186 74.999 624.439 76.974 620.909 80.493 C 620.909 80.493 573.372 128.064 556.943 144.495 C 553.413 148.017 548.635 149.998 543.668 149.998 C 524.491 149.998 476.485 149.998 476.485 149.998 C 476.485 149.998 474.33 154.329 472.081 158.829 C 468.958 165.076 468.958 172.426 472.081 178.672 C 473.33 181.201 474.579 183.676 475.423 185.36 C 476.047 186.638 475.797 188.182 474.798 189.194 C 467.489 196.504 439.004 225 439.004 225 C 439.004 225 410.457 196.429 403.179 189.163 C 402.18 188.169 401.961 186.654 402.586 185.397 C 403.429 183.713 404.678 181.219 405.928 178.672 C 409.051 172.426 409.051 165.076 405.928 158.829 C 403.679 154.329 401.524 149.998 401.524 149.998 L 334.309 149.998 C 329.343 149.998 324.595 148.029 321.097 144.526 C 304.699 128.126 257.099 80.493 257.099 80.493 C 253.57 76.974 248.822 74.999 243.825 74.999 C 243.825 74.999 48.521 74.999 3.763 74.999 C 2.232 74.999 0.858 74.083 0.296 72.677 C -0.297 71.274 0.015 69.655 1.108 68.58 C 18.318 51.365 64.2 5.447 64.2 5.447 C 67.698 1.959 72.414 0 77.349 0 L 178.109 0 C 182.888 0 187.511 1.844 190.947 5.15 L 258.599 69.743 C 262.128 73.118 266.813 74.999 271.685 74.999 C 271.685 74.999 363.013 75.018 402.273 75.027 C 412.175 75.027 420.358 67.34 421.014 57.459 C 421.732 46.037 422.575 33.259 422.575 33.259 C 422.575 24.634 429.572 17.634 438.192 17.634 C 440.098 17.634 436.412 17.634 438.192 17.634 C 448.874 17.634 465.085 20.037 471.238 13.878 C 473.674 11.465 475.86 9.14 477.703 7.072 C 479.545 5.003 482.107 3.759 484.886 3.622 C 487.635 3.484 490.322 4.462 492.352 6.337 C 492.352 6.328 492.352 6.328 492.352 6.328 C 493.507 7.491 493.507 9.359 492.352 10.512 C 492.352 10.512 472.768 30.103 462.273 40.581 Z" fill="currentColor" fill-rule="evenodd"></path>
</svg>