<svg xmlns="http://www.w3.org/2000/svg" width="210.353" height="53.695" viewBox="0 0 210.353 53.695" fill="none">
  <path d="M 110.375 9.684 C 109.398 10.662 108.891 12.012 108.981 13.391 C 108.988 13.497 108.988 13.606 108.996 13.715 C 109.145 16.067 111.091 17.899 113.448 17.899 C 122.844 17.899 144.769 17.898 144.769 17.898 C 145.933 17.898 147.051 17.449 147.894 16.644 L 164.047 1.229 C 164.867 0.44 165.971 0 167.112 0 L 192.468 0 C 193.646 0 194.78 0.468 195.607 1.3 C 195.607 1.3 205.444 11.133 209.971 15.662 C 210.344 16.037 210.455 16.6 210.254 17.089 C 210.053 17.579 209.575 17.898 209.046 17.898 C 196.569 17.898 151.421 17.898 151.421 17.898 C 150.228 17.898 149.095 18.369 148.252 19.209 C 148.252 19.209 136.902 30.562 132.979 34.483 C 132.136 35.323 130.995 35.796 129.81 35.796 C 125.231 35.796 113.768 35.796 113.768 35.796 C 113.768 35.796 113.254 36.83 112.717 37.904 C 111.971 39.394 111.971 41.148 112.717 42.639 C 113.015 43.243 113.313 43.833 113.515 44.235 C 113.664 44.54 113.604 44.909 113.366 45.15 C 111.621 46.895 104.819 53.695 104.819 53.695 C 104.819 53.695 98.003 46.877 96.266 45.143 C 96.027 44.906 95.975 44.544 96.124 44.244 C 96.325 43.842 96.623 43.247 96.922 42.639 C 97.667 41.148 97.667 39.394 96.922 37.904 C 96.385 36.83 95.87 35.796 95.87 35.796 L 79.822 35.796 C 78.636 35.796 77.502 35.326 76.667 34.49 C 72.752 30.577 61.387 19.209 61.387 19.209 C 60.544 18.369 59.41 17.898 58.217 17.898 C 58.217 17.898 11.585 17.898 0.898 17.898 C 0.533 17.898 0.205 17.68 0.071 17.344 C -0.071 17.009 0.004 16.623 0.265 16.366 C 4.374 12.258 15.329 1.3 15.329 1.3 C 16.164 0.468 17.29 0 18.468 0 L 42.526 0 C 43.667 0 44.771 0.44 45.592 1.229 L 61.745 16.644 C 62.587 17.449 63.706 17.898 64.869 17.898 C 64.869 17.898 86.675 17.903 96.049 17.905 C 98.413 17.905 100.367 16.07 100.524 13.712 C 100.695 10.986 100.897 7.937 100.897 7.937 C 100.897 5.879 102.567 4.208 104.625 4.208 C 105.08 4.208 104.2 4.208 104.625 4.208 C 107.176 4.208 111.046 4.782 112.516 3.312 C 113.097 2.736 113.619 2.181 114.059 1.688 C 114.499 1.194 115.111 0.897 115.774 0.864 C 116.431 0.832 117.072 1.065 117.557 1.512 C 117.557 1.51 117.557 1.51 117.557 1.51 C 117.833 1.788 117.833 2.234 117.557 2.509 C 117.557 2.509 112.881 7.184 110.375 9.684 Z" fill="currentColor" fill-rule="evenodd"></path>
</svg>